<?xml version="1.0"?><!DOCTYPE svg  PUBLIC '-//W3C//DTD SVG 1.1//EN'  'http://www.w3.org/Graphics/SVG/1.1/DTD/svg11.dtd'><svg enable-background="new 0 0 75 75" height="75px" id="Layer_1" version="1.1" viewBox="0 0 75 75" width="75px" xml:space="preserve" xmlns="http://www.w3.org/2000/svg" xmlns:xlink="http://www.w3.org/1999/xlink"><g><g><path d="M16.062,18.405c0.053-3.646,3.02-6.588,6.676-6.588c2.488,0,4.633,1.375,5.785,3.389    c0.297-0.031,0.598-0.045,0.904-0.045c4.932,0,8.928,3.996,8.928,8.93H26.23h-5.734h-7.639    C12.857,21.677,14.146,19.581,16.062,18.405z" fill="#D9F1FF"/><path d="M19.008,20.159c0.037-2.52,2.088-4.555,4.617-4.555c1.719,0,3.203,0.951,3.996,2.344    c0.207-0.021,0.416-0.031,0.625-0.031c3.41,0,6.174,2.764,6.174,6.174h-8.383h-3.965h-5.279    C16.793,22.421,17.686,20.974,19.008,20.159z" fill="#AEDCFF"/></g><g><g><polygon fill="#C6621E" points="42.285,68.368 32.59,68.368 34.205,57.874 40.67,57.874    "/><polygon fill="#A0490E" points="39.43,68.368 35.447,68.368 36.109,57.874 38.766,57.874    "/><g><g><path d="M49.463,24.091c-1.35-0.465-2.633-1.469-3.686-3.047L37.439,5.882L29.1,21.044       c-1.053,1.578-2.338,2.582-3.688,3.047H49.463z" fill="#0CAFAF"/></g><path d="M37.439,5.882L29.1,21.044c-1.053,1.578-2.338,2.582-3.688,3.047h12.027V5.882z" fill="#1BC1A9"/><path d="M50.891,34.901l-5.945-10.811H29.932l-5.947,10.811c-1.697,2.545-3.77,4.164-5.945,4.914h38.799      C54.662,39.065,52.59,37.446,50.891,34.901z" fill="#1BC1A9"/><g><path d="M55.885,51.14l-6.229-11.324H25.219L18.99,51.14c-2.328,3.488-5.17,5.709-8.154,6.734h53.203       C61.055,56.849,58.213,54.628,55.885,51.14z" fill="#1BC1A9"/></g></g><g><g><path d="M44.773,24.091c-0.824-0.465-1.607-1.469-2.25-3.047L37.439,5.882l-5.088,15.162       c-0.643,1.578-1.426,2.582-2.248,3.047H44.773z" fill="#109BAD"/></g><path d="M32.352,21.044c-0.643,1.578-1.426,2.582-2.248,3.047h7.336V5.882L32.352,21.044z" fill="#0CAFAF"/><path d="M45.643,34.901l-3.625-10.811h-9.158l-3.627,10.811c-1.035,2.545-2.299,4.164-3.625,4.914H49.27      C47.941,39.065,46.68,37.446,45.643,34.901z" fill="#0CAFAF"/><path d="M50.891,34.901l-5.945-10.811H30.48l-0.377,0.377l15.346,15.348h11.389      C54.662,39.065,52.59,37.446,50.891,34.901z" fill="#0CAFAF"/><path d="M45.643,34.901l-3.625-10.811h-9.158l-0.787,2.348l13.377,13.377h3.82      C47.941,39.065,46.68,37.446,45.643,34.901z" fill="#109BAD"/><g><path d="M48.688,51.14l-3.795-11.324H29.986L26.186,51.14c-1.42,3.488-3.152,5.709-4.973,6.734H53.66       C51.842,56.849,50.109,54.628,48.688,51.14z" fill="#0CAFAF"/></g><path d="M55.885,51.14l-6.229-11.324H26.445l-0.838,0.838l17.221,17.221h21.211      C61.055,56.849,58.213,54.628,55.885,51.14z" fill="#0CAFAF"/><path d="M48.688,51.14l-3.795-11.324H29.986l-1.311,3.906l14.152,14.152H53.66      C51.842,56.849,50.109,54.628,48.688,51.14z" fill="#109BAD"/></g><g><path d="M47.004,69.118H27.871c-0.414,0-0.75-0.336-0.75-0.75s0.336-0.75,0.75-0.75h19.133      c0.414,0,0.75,0.336,0.75,0.75S47.418,69.118,47.004,69.118z" fill="#A0490E"/></g></g><path d="M33.552,62.121c0.038,0.006,0.072,0.023,0.112,0.023h2.691c0.414,0,0.75-0.336,0.75-0.75    s-0.336-0.75-0.75-0.75h-2.576L33.552,62.121z" fill="#A0490E"/><path d="M38.477,64.825h2.693c0.21,0,0.398-0.087,0.535-0.227l-0.181-1.172c-0.106-0.059-0.224-0.101-0.354-0.101    h-2.693c-0.414,0-0.75,0.336-0.75,0.75S38.062,64.825,38.477,64.825z" fill="#093260"/><path d="M33.145,66.575h2.691c0.414,0,0.75-0.336,0.75-0.75s-0.336-0.75-0.75-0.75h-2.691    c-0.018,0-0.032,0.009-0.049,0.01l-0.222,1.436C32.959,66.553,33.049,66.575,33.145,66.575z" fill="#A0490E"/></g><g><path d="M61.211,34.577c-0.049-3.359-2.781-6.07-6.152-6.07c-2.291,0-4.268,1.266-5.328,3.121    c-0.273-0.027-0.553-0.041-0.834-0.041c-4.541,0-8.225,3.684-8.225,8.229h11.17h5.283h7.039    C64.164,37.591,62.977,35.661,61.211,34.577z" fill="#D9F1FF"/><path d="M58.496,36.192c-0.033-2.322-1.922-4.195-4.254-4.195c-1.582,0-2.949,0.875-3.682,2.158    c-0.189-0.02-0.383-0.029-0.576-0.029c-3.143,0-5.686,2.547-5.686,5.689h7.723h3.652h4.865    C60.539,38.276,59.717,36.942,58.496,36.192z" fill="#AEDCFF"/></g></g></svg>